<svg width="180" height="180" viewBox="0 0 180 180" fill="none" xmlns="http://www.w3.org/2000/svg">
<rect width="180" height="180" fill="white" fill-opacity="0.01"/>
<path d="M31.6093 45.932C31.3286 37.8709 37.6093 30.4375 46.0987 30.4375H133.089C141.578 30.4375 147.859 37.8709 147.578 45.932C147.309 53.6755 147.659 63.7062 150.183 71.885C152.716 80.089 156.986 85.2747 163.981 85.941V93.4965C156.986 94.1628 152.716 99.3485 150.183 107.553C147.659 115.731 147.309 125.762 147.578 133.506C147.859 141.567 141.578 149 133.089 149H46.0987C37.6093 149 31.3286 141.567 31.6096 133.506C31.879 125.762 31.5289 115.731 29.0042 107.553C26.4719 99.3485 22.1909 94.1628 15.1963 93.4965V85.941C22.1906 85.2747 26.4719 80.089 29.0042 71.885C31.5289 63.7062 31.879 53.6755 31.6093 45.932Z" fill="url(#paint0_linear_79_13)"/>
<g filter="url(#filter0_d_79_13)">
<path d="M92.8147 121.235C106.559 121.235 114.841 114.506 114.841 103.406C114.841 95.0157 108.932 88.9414 100.157 87.9799V87.6303C106.604 86.5815 111.663 80.5947 111.663 73.9087C111.663 64.3822 104.141 58.1765 92.6804 58.1765H66.8931V121.235H92.8147ZM76.9215 66.1737H90.263C97.5156 66.1737 101.634 69.4074 101.634 75.2632C101.634 81.5124 96.844 85.0083 88.1588 85.0083H76.9215V66.1737ZM76.9215 113.239V92.4812H90.1732C99.6643 92.4812 104.589 95.977 104.589 102.794C104.589 109.611 99.7988 113.239 90.7552 113.239H76.9215Z" fill="url(#paint1_linear_79_13)"/>
<path d="M92.8147 121.235C106.559 121.235 114.841 114.506 114.841 103.406C114.841 95.0157 108.932 88.9414 100.157 87.9799V87.6303C106.604 86.5815 111.663 80.5947 111.663 73.9087C111.663 64.3822 104.141 58.1765 92.6804 58.1765H66.8931V121.235H92.8147ZM76.9215 66.1737H90.263C97.5156 66.1737 101.634 69.4074 101.634 75.2632C101.634 81.5124 96.844 85.0083 88.1588 85.0083H76.9215V66.1737ZM76.9215 113.239V92.4812H90.1732C99.6643 92.4812 104.589 95.977 104.589 102.794C104.589 109.611 99.7988 113.239 90.7552 113.239H76.9215Z" stroke="white"/>
</g>
<defs>
<filter id="filter0_d_79_13" x="50.3931" y="45.6765" width="80.9482" height="96.0591" filterUnits="userSpaceOnUse" color-interpolation-filters="sRGB">
<feFlood flood-opacity="0" result="BackgroundImageFix"/>
<feColorMatrix in="SourceAlpha" type="matrix" values="0 0 0 0 0 0 0 0 0 0 0 0 0 0 0 0 0 0 127 0" result="hardAlpha"/>
<feOffset dy="4"/>
<feGaussianBlur stdDeviation="8"/>
<feColorMatrix type="matrix" values="0 0 0 0 0 0 0 0 0 0 0 0 0 0 0 0 0 0 0.15 0"/>
<feBlend mode="normal" in2="BackgroundImageFix" result="effect1_dropShadow_79_13"/>
<feBlend mode="normal" in="SourceGraphic" in2="effect1_dropShadow_79_13" result="shape"/>
</filter>
<linearGradient id="paint0_linear_79_13" x1="37.3044" y1="33.5753" x2="167.317" y2="136.779" gradientUnits="userSpaceOnUse">
<stop stop-color="#9013FE"/>
<stop offset="1" stop-color="#6610F2"/>
</linearGradient>
<linearGradient id="paint1_linear_79_13" x1="71.4284" y1="62.3271" x2="100.49" y2="111.476" gradientUnits="userSpaceOnUse">
<stop stop-color="white"/>
<stop offset="1" stop-color="#F1E5FC"/>
</linearGradient>
</defs>
</svg>
