<svg width="275" height="275" viewBox="0 0 275 275" fill="none" xmlns="http://www.w3.org/2000/svg">
<rect width="275" height="275" rx="60" fill="url(#paint0_linear_1317_2871)"/>
<path d="M225.822 37L209.149 217.554L136.91 237L64.6699 217.554L48 37H225.822ZM192.224 73.7129H136.845H80.4844L83.1798 95.5165H136.845H139.859L136.845 96.7709L85.1411 118.3L86.8559 139.612L136.845 139.774L163.637 139.859L161.922 168.276L136.844 175.335V175.313L136.639 175.37L112.42 169.258L110.95 151.618H110.87H88.4058H88.3267L91.2671 185.671L136.845 199.147V199.122L136.927 199.147L182.261 185.917L188.142 118.3H136.845H136.719L136.845 118.245L190.021 95.5165L192.224 73.7129Z" fill="white"/>
<defs>
<linearGradient id="paint0_linear_1317_2871" x1="252.275" y1="-1.56661e-05" x2="22.7253" y2="275" gradientUnits="userSpaceOnUse">
<stop stop-color="#1F40E6"/>
<stop offset="1" stop-color="#45A4FD"/>
</linearGradient>
</defs>
</svg>
