<svg width="254" height="275" viewBox="0 0 254 275" fill="none" xmlns="http://www.w3.org/2000/svg">
<path d="M75.5468 214.574C75.4826 214.574 75.4093 214.564 75.3359 214.564C73.3003 214.564 71.6498 216.215 71.6498 218.25C71.6498 218.7 71.7324 219.122 71.8699 219.525L71.8607 219.498C84.1661 253.855 104.293 275 126.923 275C146.362 273.038 162.592 261.007 170.469 244.264L170.606 243.934C170.927 243.402 171.12 242.751 171.12 242.063C171.12 240.028 169.469 238.377 167.434 238.377C166.113 238.377 164.949 239.074 164.298 240.12L164.288 240.138C157.512 254.992 143.648 265.565 127.152 267.6L126.923 267.628C108.126 267.628 90.1721 248.757 78.802 217.003C78.2977 215.628 77.0415 214.656 75.5468 214.564H75.5377L75.5468 214.574ZM236.021 198.903C241.688 198.903 246.3 203.497 246.3 209.173C246.3 214.849 241.706 219.443 236.03 219.443C233.453 219.443 231.088 218.489 229.29 216.921L229.3 216.93L229.226 216.793C228.933 216.371 228.566 216.022 228.144 215.756L228.126 215.747C226.65 213.978 225.751 211.685 225.751 209.182C225.751 203.515 230.345 198.912 236.012 198.912L236.021 198.903ZM17.6053 198.903C23.272 198.903 27.875 203.497 27.875 209.173C27.875 214.849 23.2812 219.443 17.6053 219.443C11.9386 219.443 7.33553 214.849 7.33553 209.173C7.33553 207.284 7.84902 205.514 8.73845 203.992L8.71095 204.038C10.5173 200.948 13.8183 198.903 17.6053 198.903ZM41.244 152.873C41.189 152.873 41.1248 152.873 41.0698 152.873C39.0342 152.873 37.3837 154.523 37.3837 156.559C37.3837 157.512 37.7505 158.383 38.3465 159.044C54.0996 175.915 72.1908 190.33 92.171 201.828L93.2896 202.424C143.877 231.629 197.628 240.065 225.76 223.495C228.612 225.568 232.188 226.806 236.048 226.806C245.795 226.806 253.699 218.901 253.699 209.154C253.699 199.407 245.795 191.503 236.048 191.503C226.301 191.503 218.397 199.407 218.397 209.154C218.397 212.364 219.25 215.362 220.745 217.957L220.699 217.875C194.979 231.785 144.721 223.605 96.9758 196.042C76.5646 184.342 59.051 170.404 43.9215 154.22L43.8023 154.092C43.1696 153.395 42.2618 152.937 41.2624 152.891L41.244 152.873ZM126.813 131.719C119.817 131.792 114.168 137.477 114.168 144.483C114.168 151.534 119.881 157.246 126.932 157.246C133.984 157.246 139.696 151.534 139.696 144.483C139.696 143.529 139.595 142.603 139.393 141.704L139.412 141.787C138.11 135.982 132.993 131.719 126.896 131.719C126.868 131.719 126.841 131.719 126.813 131.719ZM159.805 60.2522C159.539 60.2522 159.282 60.2889 159.034 60.3439H159.062C134.222 66.084 112.307 75.0517 92.336 86.9536L93.3905 86.3667C41.024 116.598 6.39108 160.786 9.05938 193.75C3.61275 196.822 0 202.562 0 209.154C0 218.892 7.89487 226.778 17.6236 226.778C27.3524 226.778 35.2472 218.883 35.2472 209.154C35.2472 199.416 27.3524 191.531 17.6236 191.531C17.1927 191.531 16.7525 191.567 16.3216 191.595C15.1754 162.262 47.7543 121.229 97.0766 92.7487C115.37 81.7912 136.578 73.1078 159.099 67.8445L160.602 67.5511C162.271 67.1752 163.5 65.708 163.5 63.9475C163.5 61.9119 161.849 60.2614 159.814 60.2614C159.805 60.2614 159.805 60.2614 159.795 60.2614L159.805 60.2522ZM190.724 56.9054C188.697 56.9146 187.065 58.5651 187.065 60.5915C187.065 62.5813 188.652 64.2134 190.623 64.2776C192.154 64.1034 193.933 64.0025 195.73 64.0025C211.153 64.0025 224.862 71.3747 233.518 82.7907L233.6 82.9099C242.99 99.1672 235.663 124.099 213.913 149.792C213.354 150.433 213.015 151.286 213.015 152.212C213.015 154.248 214.665 155.898 216.701 155.898C217.838 155.898 218.865 155.376 219.534 154.569L219.543 154.56C243.072 126.758 251.288 98.8005 239.991 79.2238C230.033 65.488 214.033 56.6578 195.978 56.6578C194.135 56.6578 192.301 56.7495 190.504 56.9329L190.733 56.9146L190.724 56.9054ZM64.0759 56.7037C62.3062 56.5019 60.2431 56.3827 58.1616 56.3827C39.9787 56.3827 23.868 65.2404 13.9008 78.8753L13.7908 79.0312C10.7741 85.6057 9.02271 93.2896 9.02271 101.386C9.02271 113.591 13.0114 124.86 19.7509 133.965L19.6501 133.818C20.3103 134.891 21.4748 135.597 22.8043 135.597C24.84 135.597 26.4904 133.947 26.4904 131.911C26.4904 131.269 26.3254 130.664 26.032 130.142L26.0411 130.16C20.0352 122.228 16.4224 112.206 16.4224 101.331C16.4224 94.6101 17.807 88.219 20.2919 82.4147L20.1727 82.7265C29.5805 66.4324 54.9248 60.3256 88.1456 66.3774C88.3657 66.4233 88.6041 66.4508 88.8608 66.4508C90.8964 66.4508 92.5469 64.8003 92.5469 62.7647C92.5469 60.9399 91.2265 59.427 89.4843 59.1336H89.466C81.8462 57.6298 73.0711 56.7587 64.0942 56.7312H64.0759V56.7037ZM126.941 7.37221C132.608 7.37221 137.211 11.9661 137.211 17.642C137.211 23.3178 132.617 27.9117 126.941 27.9117C121.275 27.9117 116.672 23.3178 116.672 17.642C116.672 15.7531 117.185 13.9834 118.075 12.4612L118.047 12.5071C119.853 9.41699 123.154 7.37221 126.941 7.37221ZM126.941 0C117.203 0 109.29 7.89487 109.29 17.642C109.29 27.389 117.185 35.2839 126.932 35.2839C133.708 35.2839 139.595 31.4603 142.548 25.8486L142.594 25.7477C168.039 40.2721 186.671 88.4574 186.671 144.483C186.671 144.978 186.68 145.574 186.68 146.161C186.68 169.13 183.223 191.302 176.796 212.162L177.217 210.576C177.126 210.887 177.071 211.245 177.071 211.612C177.071 213.647 178.721 215.298 180.757 215.298C182.38 215.298 183.755 214.253 184.25 212.795L184.259 212.767C190.476 192.833 194.052 169.909 194.052 146.161C194.052 145.564 194.052 144.978 194.043 144.382V144.473C194.043 84.973 173.742 33.4867 144.538 18.403C144.547 18.1463 144.574 17.8987 144.574 17.6328C144.574 7.89487 136.689 0 126.941 0Z" fill="white"/>
</svg>
