<svg width="275" height="275" viewBox="0 0 275 275" fill="none" xmlns="http://www.w3.org/2000/svg">
<path fill-rule="evenodd" clip-rule="evenodd" d="M5.74908 123.62C-1.91636 131.286 -1.91636 143.714 5.74908 151.38L123.62 269.251C131.286 276.916 143.714 276.916 151.38 269.251L269.251 151.38C276.916 143.714 276.916 131.286 269.251 123.62L151.38 5.74908C143.714 -1.91636 131.286 -1.91636 123.62 5.74908L5.74908 123.62ZM87.7409 42.0049L99.6768 30.0685L131.31 61.7012C133.265 61.0953 135.342 60.769 137.496 60.769C149.023 60.769 158.367 70.1131 158.367 81.6397C158.367 83.7935 158.041 85.8718 157.435 87.8262L189.084 119.476C191.108 118.823 193.264 118.47 195.505 118.47C207.031 118.47 216.375 127.814 216.375 139.341C216.375 150.867 207.031 160.211 195.505 160.211C183.978 160.211 174.634 150.867 174.634 139.341C174.634 136.276 175.294 133.366 176.48 130.745L147.011 101.276V177.54C153.754 180.999 158.367 188.022 158.367 196.12C158.367 207.647 149.023 216.991 137.496 216.991C125.97 216.991 116.626 207.647 116.626 196.12C116.626 187.187 122.239 179.564 130.13 176.587V101.173C122.239 98.1957 116.626 90.5733 116.626 81.6397C116.626 78.493 117.322 75.5091 118.569 72.8335L87.7409 42.0049Z" fill="#EE513B"/>
</svg>
