<svg width="275" height="275" viewBox="0 0 275 275" fill="none" xmlns="http://www.w3.org/2000/svg">
<rect width="275" height="275" rx="60" fill="url(#paint0_linear_1317_2870)"/>
<path d="M49 37L65.1077 217.009L137.391 237L209.875 216.98L226 37H49ZM192.4 79.7185L191.391 90.9107L190.948 95.8739H190.875H137.5H137.423H106.154L108.179 118.481H137.423H137.5H182.96H188.931L188.39 124.409L183.183 182.533L182.85 186.26L137.5 198.783V198.788L137.398 198.816L92.0077 186.261L88.9031 151.597H99.1553H111.147L112.724 169.204L137.402 175.844L137.423 175.838V175.836L162.138 169.191L164.708 140.558H137.5H137.423H87.9132L82.4673 79.7185L81.9366 73.7963H137.423H137.5H192.93L192.4 79.7185Z" fill="white"/>
<defs>
<linearGradient id="paint0_linear_1317_2870" x1="262.581" y1="1.16143e-05" x2="12.419" y2="275" gradientUnits="userSpaceOnUse">
<stop stop-color="#E64C1F"/>
<stop offset="1" stop-color="#FDA745"/>
</linearGradient>
</defs>
</svg>
