<svg width="554" height="334" viewBox="0 0 554 334" fill="none" xmlns="http://www.w3.org/2000/svg">
<path d="M131.037 87.0917H235.433V95.3892H140.607V157.839H229.778V166.136H140.607V234.7H236.52V242.998H131.037V87.0917ZM244.785 87.0917H255.877L305.03 155.655L355.27 87.0917L423.606 0L311.337 162.861L369.19 242.998H357.663L305.03 170.067L252.18 242.998H240.87L299.158 162.861L244.785 87.0917ZM373.322 95.3892V87.0917H492.29V95.3892H437.482V242.998H427.912V95.3892H373.322ZM0.433594 87.0917H12.3956L177.345 333.922L109.179 242.998L10.4382 98.8829L10.0032 242.998H0.433594V87.0917ZM491.326 232.196C489.37 232.196 487.904 230.681 487.904 228.724C487.904 226.766 489.37 225.251 491.326 225.251C493.304 225.251 494.747 226.766 494.747 228.724C494.747 230.681 493.304 232.196 491.326 232.196ZM500.729 223.06H505.85C505.919 225.834 507.944 227.698 510.924 227.698C514.252 227.698 516.137 225.694 516.137 221.942V198.17H521.351V221.965C521.351 228.724 517.441 232.616 510.97 232.616C504.895 232.616 500.729 228.84 500.729 223.06ZM528.171 222.757H533.338C533.78 225.95 536.899 227.978 541.391 227.978C545.581 227.978 548.653 225.81 548.653 222.827C548.653 220.264 546.698 218.725 542.252 217.677L537.923 216.628C531.848 215.206 529.078 212.27 529.078 207.329C529.078 201.339 533.966 197.354 541.298 197.354C548.118 197.354 553.099 201.339 553.401 207.003H548.327C547.838 203.903 545.139 201.968 541.228 201.968C537.108 201.968 534.362 203.949 534.362 206.979C534.362 209.38 536.131 210.755 540.507 211.78L544.207 212.689C551.097 214.297 553.937 217.094 553.937 222.151C553.937 228.584 548.956 232.616 540.995 232.616C533.547 232.616 528.543 228.77 528.171 222.757Z" fill="white"/>
</svg>
